<svg width="18" height="17" viewBox="0 0 18 17" fill="none" xmlns="http://www.w3.org/2000/svg">
<path d="M8.70007 15.9806C8.22967 15.9806 7.75225 15.8612 7.331 15.6155L3.16063 13.2074C2.31813 12.7159 1.79156 11.8102 1.79156 10.8343V6.0321C1.79156 5.05621 2.31813 4.15052 3.16063 3.65906L7.331 1.25092C8.1735 0.75946 9.21961 0.75946 10.0691 1.25092L14.2395 3.65906C15.082 4.15052 15.6086 5.05621 15.6086 6.0321V10.8343C15.6086 11.8102 15.082 12.7159 14.2395 13.2074L10.0691 15.6155C9.64788 15.8612 9.17046 15.9806 8.70007 15.9806ZM8.70007 1.93895C8.41221 1.93895 8.11734 2.01618 7.85757 2.16362L3.68719 4.57176C3.16765 4.87365 2.84469 5.42831 2.84469 6.0321V10.8343C2.84469 11.4311 3.16765 11.9928 3.68719 12.2947L7.85757 14.7028C8.37711 15.0047 9.02302 15.0047 9.54256 14.7028L13.7129 12.2947C14.2325 11.9928 14.5554 11.4381 14.5554 10.8343V6.0321C14.5554 5.43533 14.2325 4.87365 13.7129 4.57176L9.54256 2.16362C9.28279 2.01618 8.98792 1.93895 8.70007 1.93895Z" fill="#111827"/>
<path d="M8.69989 8.25792C7.50635 8.25792 6.53748 7.28903 6.53748 6.09549C6.53748 4.90195 7.50635 3.93311 8.69989 3.93311C9.89343 3.93311 10.8623 4.90195 10.8623 6.09549C10.8623 7.28903 9.89343 8.25792 8.69989 8.25792ZM8.69989 4.98623C8.08908 4.98623 7.5906 5.48468 7.5906 6.09549C7.5906 6.7063 8.08908 7.20479 8.69989 7.20479C9.3107 7.20479 9.80918 6.7063 9.80918 6.09549C9.80918 5.48468 9.3107 4.98623 8.69989 4.98623Z" fill="#111827"/>
<path d="M11.5083 12.2315C11.2204 12.2315 10.9817 11.9928 10.9817 11.705C10.9817 10.7361 9.95668 9.94277 8.69995 9.94277C7.44322 9.94277 6.41818 10.7361 6.41818 11.705C6.41818 11.9928 6.17947 12.2315 5.89161 12.2315C5.60376 12.2315 5.36505 11.9928 5.36505 11.705C5.36505 10.1534 6.86049 8.88965 8.69995 8.88965C10.5394 8.88965 12.0348 10.1534 12.0348 11.705C12.0348 11.9928 11.7961 12.2315 11.5083 12.2315Z" fill="#111827"/>
</svg>
