<svg width="19" height="19" viewBox="0 0 19 19" fill="none" xmlns="http://www.w3.org/2000/svg">
<g clip-path="url(#clip0_558_59)">
<path d="M14.275 2.9082H7.70996L4.27496 6.3382V8.4082H5.27496V7.7132H9.07996V3.9082H14.275V15.9082H4.27496C4.27496 16.1734 4.38032 16.4278 4.56786 16.6153C4.75539 16.8028 5.00975 16.9082 5.27496 16.9082H14.275C14.5402 16.9082 14.7945 16.8028 14.9821 16.6153C15.1696 16.4278 15.275 16.1734 15.275 15.9082V3.9082C15.275 3.64299 15.1696 3.38863 14.9821 3.2011C14.7945 3.01356 14.5402 2.9082 14.275 2.9082ZM8.27496 6.9082H5.27496V6.7482L8.12496 3.9082H8.27496V6.9082Z" fill="#545454"/>
<path d="M6.24496 14.048C6.19262 14.0928 6.15011 14.148 6.1201 14.21C6.09009 14.272 6.07322 14.3396 6.07056 14.4085C6.0679 14.4773 6.07951 14.546 6.10464 14.6101C6.12978 14.6743 6.16791 14.7326 6.21664 14.7813C6.26537 14.83 6.32364 14.8682 6.3878 14.8933C6.45196 14.9184 6.52063 14.93 6.58949 14.9274C6.65835 14.9247 6.72592 14.9079 6.78795 14.8778C6.84998 14.8478 6.90514 14.8053 6.94996 14.753L9.77496 11.908L6.93496 9.06798C6.83931 8.98607 6.71627 8.94327 6.59044 8.94813C6.4646 8.95299 6.34523 9.00515 6.25618 9.0942C6.16713 9.18325 6.11497 9.30262 6.11011 9.42846C6.10525 9.55429 6.14805 9.67733 6.22996 9.77298L7.87496 11.408H1.77496C1.64236 11.408 1.51518 11.4607 1.42141 11.5544C1.32764 11.6482 1.27496 11.7754 1.27496 11.908C1.27496 12.0406 1.32764 12.1678 1.42141 12.2615C1.51518 12.3553 1.64236 12.408 1.77496 12.408H7.88996L6.24496 14.048Z" fill="#545454"/>
</g>
<defs>
<clipPath id="clip0_558_59">
<rect width="18" height="18" fill="white" transform="translate(0.274963 0.908203)"/>
</clipPath>
</defs>
</svg>
