<svg width="19" height="16" viewBox="0 0 19 16" fill="none" xmlns="http://www.w3.org/2000/svg">
<path d="M13.5388 1C13.9184 2.56456 11.5408 3.75035 10.2116 4.28205C9.81952 4.43889 9.37709 4.23917 9.4447 3.93091C9.67187 2.89451 10.5024 1.00006 13.5388 1Z" stroke="black"/>
<path d="M6.22454 4.23096C7.16159 4.23096 7.991 4.37412 8.62214 4.53259C9.41816 4.73248 10.3454 4.73247 11.1415 4.53258C11.7725 4.37412 12.602 4.23096 13.539 4.23096C14.673 4.23096 16.1147 4.65375 17.1962 5.49933C13.5391 7.46173 14.584 10.6925 17.9999 11.548C16.9093 13.6068 14.8361 15.0002 13.0165 15.0002C11.4491 15.0002 11.4492 14.4976 9.8818 14.4976C8.3144 14.4976 8.3144 15.0002 6.747 15.0002C4.13467 15.0002 0.999878 12.1284 0.999878 8.53865C0.999878 5.66686 4.13467 4.23096 6.22454 4.23096Z" stroke="black"/>
</svg>
