<svg width="18" height="18" viewBox="0 0 18 18" fill="none" xmlns="http://www.w3.org/2000/svg">
<path d="M8.69996 16.6387C8.15233 16.6387 7.61875 16.3579 7.25367 15.8664L6.54456 14.9186C6.39713 14.722 6.20054 14.6097 5.98992 14.5957C5.77929 14.5887 5.56867 14.6799 5.40017 14.8554L4.99998 14.4974L5.38613 14.8554C4.37513 15.9367 3.59581 15.8524 3.22371 15.705C2.84458 15.5575 2.20569 15.0731 2.20569 13.5145V5.60901C2.20569 2.49176 3.10436 1.54395 6.04608 1.54395H11.3538C14.2956 1.54395 15.1942 2.49176 15.1942 5.60901V13.5145C15.1942 15.0661 14.5553 15.5505 14.1762 15.705C13.8041 15.8524 13.0318 15.9367 12.0138 14.8554C11.8453 14.6729 11.6347 14.5746 11.417 14.5957C11.2064 14.6097 11.0028 14.722 10.8554 14.9186L10.1463 15.8664C9.78117 16.3579 9.24758 16.6387 8.69996 16.6387ZM5.94779 13.5355C5.97588 13.5355 6.01098 13.5355 6.03906 13.5355C6.55861 13.5636 7.05006 13.8374 7.38004 14.2797L8.08915 15.2275C8.43317 15.6839 8.95973 15.6839 9.30375 15.2275L10.0129 14.2797C10.3499 13.8374 10.8343 13.5636 11.3609 13.5355C11.8804 13.5074 12.3999 13.7251 12.7791 14.1323C13.3126 14.701 13.6567 14.7712 13.783 14.722C13.9515 14.6518 14.1341 14.2446 14.1341 13.5145V5.60901C14.1341 3.07449 13.6918 2.59707 11.3468 2.59707H6.04608C3.70113 2.59707 3.25881 3.07449 3.25881 5.60901V13.5145C3.25881 14.2517 3.44136 14.6589 3.60986 14.722C3.72921 14.7712 4.08025 14.701 4.61383 14.1323C4.99296 13.7462 5.46336 13.5355 5.94779 13.5355Z" fill="#111827"/>
<path d="M11.6698 8.91592H7.8083C7.52045 8.91592 7.28174 8.67721 7.28174 8.38936C7.28174 8.1015 7.52045 7.86279 7.8083 7.86279H11.6698C11.9576 7.86279 12.1963 8.1015 12.1963 8.38936C12.1963 8.67721 11.9576 8.91592 11.6698 8.91592Z" fill="#111827"/>
<path d="M11.6698 6.10781H7.8083C7.52045 6.10781 7.28174 5.8691 7.28174 5.58125C7.28174 5.2934 7.52045 5.05469 7.8083 5.05469H11.6698C11.9576 5.05469 12.1963 5.2934 12.1963 5.58125C12.1963 5.8691 11.9576 6.10781 11.6698 6.10781Z" fill="#111827"/>
<path d="M5.73718 6.28307C5.35103 6.28307 5.0351 5.96714 5.0351 5.58099C5.0351 5.19484 5.35103 4.87891 5.73718 4.87891C6.12332 4.87891 6.43926 5.19484 6.43926 5.58099C6.43926 5.96714 6.12332 6.28307 5.73718 6.28307Z" fill="#111827"/>
<path d="M5.73718 9.09167C5.35103 9.09167 5.0351 8.77573 5.0351 8.38958C5.0351 8.00344 5.35103 7.6875 5.73718 7.6875C6.12332 7.6875 6.43926 8.00344 6.43926 8.38958C6.43926 8.77573 6.12332 9.09167 5.73718 9.09167Z" fill="#111827"/>
</svg>
